# xmcd CD database file
#
# Track frame offsets:
#	150
#	14483
#	34566
#	51812
#	74842
#	93331
#	112202
#	132586
#	151505
#	172608
#
# Disc length: 2599 seconds
#
# Revision: 4
# Processed by: cddbd v1.5.2PL0 Copyright (c) Steve Scherf et al.
# Submitted via: CDex 1.70beta3
#
DISCID=7f0a250a
DTITLE=Cherie - JACK
DYEAR=2011
DGENRE=J-POP(J)
TTITLE0=あばよ
TTITLE1=TRIP
TTITLE2=うねり
TTITLE3=恋のフシギ
TTITLE4=涙ヒラリ
TTITLE5=激情
TTITLE6=LEON
TTITLE7=スノードロップ
TTITLE8=Ready to Go
TTITLE9=そのままで
EXTD=YEAR: 2011
EXTT0=
EXTT1=
EXTT2=
EXTT3=
EXTT4=
EXTT5=
EXTT6=
EXTT7=
EXTT8=
EXTT9=
PLAYORDER=
